<svg
  xmlns="http://www.w3.org/2000/svg"
  viewBox="0 0 3205.4794520547944 1880.6064548678887"
>
  <g transform="scale(10.273972602739725) translate(10, 10)">
    <defs id="SvgjsDefs4189"></defs>
    <g
      id="SvgjsG4190"
      featureKey="symbolFeature-0"
      transform="matrix(0.7925150815946265,0,0,0.7925150815946265,-3.566317867175819,42.43368213282418)"
      fill="#807c6a"
    >
      <path
        xmlns="http://www.w3.org/2000/svg"
        d="M66,15C52,1,29.1,1,15,15C1,29.1,1,52,15,66c12.9,12.9,33.1,14,47.2,3.3l4.5,4.5l-1.3,1.3l18.3,18.3c2.6,2.6,6.9,2.6,9.6,0  c2.6-2.6,2.6-6.9,0-9.6L75.1,65.5l-1.3,1.3l-4.5-4.5C80,48.2,78.9,27.9,66,15z M59.1,59.1c-10.2,10.2-26.8,10.2-37,0  c-10.2-10.2-10.2-26.8,0-37c10.2-10.2,26.8-10.2,37,0C69.3,32.3,69.3,48.8,59.1,59.1z M34.2,28.2c1.7,1.7,1.7,4.4,0,6  c-3.5,3.5-3.5,9.1,0,12.6c1.7,1.7,1.7,4.4,0,6c-1.7,1.7-4.4,1.7-6,0c-6.8-6.8-6.8-17.9,0-24.7C29.9,26.5,32.6,26.5,34.2,28.2z"
      ></path>
    </g>
    <g
      id="SvgjsG4191"
      featureKey="nameFeature-0"
      transform="matrix(1.7319015776422013,0,0,1.7319015776422013,89.92171802424586,-7.620366280957665)"
      fill="#fac332"
    >
      <path d="M1.2 8 l4.2 0 l1.2 24.08 l0.4 0 l2.4 -24.08 l3.4 0 l2.4 24.08 l0.4 0 l1.2 -24.08 l4.2 0 l-2.8 32 l-4.8 0 l-2.28 -16.72 l-2.32 16.72 l-4.8 0 z M23.8 23.16 c0 -11.16 0.24 -15.56 6.24 -15.56 s6.24 4.4 6.24 15.56 c0 12.8 -0.24 17.24 -6.24 17.24 s-6.24 -4.44 -6.24 -17.24 z M27.799999999999997 23.16 c0 11.56 0 13.24 2.24 13.24 s2.24 -1.68 2.24 -13.24 c0 -10.4 0 -12.36 -2.24 -12.36 s-2.24 1.96 -2.24 12.36 z M39.879999999999995 40 l0 -32 l6.48 0 c4.12 0 5.52 2.52 5.52 7.36 c0 4.36 -0.52 6.84 -1.76 8.04 l0 0.24 c1.04 0.36 1.36 2.24 1.76 6.92 l0.8 9.44 l-4 0 l-0.52 -9.44 c-0.28 -4.76 -1 -5.76 -2.2 -5.76 l-2.08 0 l0 15.2 l-4 0 z M43.879999999999995 21.6 l2.48 0 c1.4 0 1.8 -1.4 1.8 -6.24 c0 -3.16 -0.6 -4.16 -1.8 -4.16 l-2.48 0 l0 10.4 z M55.879999999999995 40 l0 -32 l6 0 c6 0 6 4.4 6 15.16 c0 12.4 0 16.84 -6 16.84 l-6 0 z M59.879999999999995 36 l2 0 c2.24 0 2.24 -1.68 2.24 -12.84 c0 -10 0 -11.96 -2.24 -11.96 l-2 0 l0 24.8 z M71.47999999999999 23.16 c0 -14.36 3.2 -18.76 8.8 -18.76 l0 3.2 c-1.84 0 -5.04 1.96 -5.04 15.56 c0 15.56 2 17.24 5.04 17.24 l0 4 c-6.8 0 -8.8 -4.44 -8.8 -21.24 z M84.27999999999999 40 l0 -32 l4 0 l0 28 l5.2 0 l0 4 l-9.2 0 z M95.87999999999998 40 l0 -32 l9.2 0 l0 3.2 l-5.2 0 l0 10.4 l4.4 0 l0 3.2 l-4.4 0 l0 11.2 l5.2 0 l0 4 l-9.2 0 z M107.87999999999998 44.4 l0 -4 c3.04 0 5.04 -1.68 5.04 -17.24 c0 -13.6 -3.2 -15.56 -5.04 -15.56 l0 -3.2 c5.6 0 8.8 4.4 8.8 18.76 c0 16.8 -2 21.24 -8.8 21.24 z"></path>
    </g>
    <g
      id="SvgjsG4192"
      transform="matrix(2.617800994837077,0,0,2.617800994837077,86.76439925859063,58.05759204130338)"
      fill="#fac332"
    >
      <path d="M2 40 l0 -32 l8.4 0 l0 3.2 l-4.4 0 l0 12 l3.6 0 l0 3.2 l-3.6 0 l0 13.6 l-4 0 z M13.200000000000001 40 l0 -32 l4 0 l0 32 l-4 0 z M21.200000000000003 40 l0 -32 l3.6 0 l5.24 19.6 l-0.04 -0.4 l0 -19.2 l4 0 l0 32 l-3.6 0 l-5.24 -17.6 l0.04 0.4 l0 17.2 l-4 0 z M38 40 l0 -32 l6 0 c6 0 6 4.4 6 15.16 c0 12.4 0 16.84 -6 16.84 l-6 0 z M42 36 l2 0 c2.24 0 2.24 -1.68 2.24 -12.84 c0 -10 0 -11.96 -2.24 -11.96 l-2 0 l0 24.8 z M53.6 40 l0 -32 l9.2 0 l0 3.2 l-5.2 0 l0 10.4 l4.4 0 l0 3.2 l-4.4 0 l0 11.2 l5.2 0 l0 4 l-9.2 0 z M65.6 40 l0 -32 l6.48 0 c4.12 0 5.52 2.52 5.52 7.36 c0 4.36 -0.52 6.84 -1.76 8.04 l0 0.24 c1.04 0.36 1.36 2.24 1.76 6.92 l0.8 9.44 l-4 0 l-0.52 -9.44 c-0.28 -4.76 -1 -5.76 -2.2 -5.76 l-2.08 0 l0 15.2 l-4 0 z M69.6 21.6 l2.48 0 c1.4 0 1.8 -1.4 1.8 -6.24 c0 -3.16 -0.6 -4.16 -1.8 -4.16 l-2.48 0 l0 10.4 z"></path>
    </g>
  </g>
</svg>